<?xml version="1.0" standalone="no"?>
<!DOCTYPE svg PUBLIC "-//W3C//DTD SVG 20010904//EN"
 "http://www.w3.org/TR/2001/REC-SVG-20010904/DTD/svg10.dtd">
<svg version="1.0" xmlns="http://www.w3.org/2000/svg"
 width="1000" height="1000" viewBox="0 0 1440.000000 3200.000000"
 preserveAspectRatio="xMidYMid meet">

<g transform="translate(0.000000,3200.000000) scale(0.100000,-0.100000)"
fill="#000000" stroke="none">
<path d="M0 16000 l0 -16000 3274 0 3274 0 4 29 c2 17 0 27 -5 24 -5 -3 -7 3
-5 13 2 13 13 20 35 22 21 2 33 10 39 25 24 70 50 493 31 516 -8 9 -11 49 -10
115 1 56 -2 116 -7 135 -6 24 -5 45 5 75 17 47 20 116 5 116 -5 0 -10 15 -10
33 0 17 -7 50 -14 72 l-14 40 56 13 c63 14 89 37 98 82 5 20 12 30 25 30 16 0
18 8 17 67 -1 38 2 125 7 196 l8 127 -27 0 c-14 0 -26 5 -26 10 0 6 9 10 20
10 13 0 20 7 20 20 0 18 4 21 28 19 11 0 20 40 21 94 1 41 -2 50 -19 54 -21 6
-25 34 -22 151 2 52 2 52 -28 52 -16 0 -29 3 -29 8 3 20 -2 32 -16 32 -10 0
-15 10 -15 30 0 20 5 30 15 30 23 0 20 82 -3 103 -10 10 -23 17 -30 17 -13 0
-10 54 32 520 6 66 21 98 48 102 17 2 24 11 26 31 2 15 9 27 17 27 17 0 25 23
25 76 l0 44 -45 0 c-29 0 -45 4 -46 13 0 6 -1 46 -2 87 -2 65 -4 75 -19 72
-12 -2 -19 6 -24 25 -14 64 -44 174 -69 258 -14 49 -24 97 -22 107 3 9 1 18
-4 20 -11 4 -20 76 -19 159 0 40 -7 91 -20 130 -23 73 -27 173 -8 167 7 -3 15
-19 19 -37 4 -18 12 -38 18 -44 6 -6 11 -21 11 -33 0 -13 4 -25 9 -28 5 -4 12
-25 16 -49 12 -72 53 -207 75 -241 11 -20 20 -51 20 -74 0 -36 4 -44 30 -57
24 -12 30 -22 30 -48 0 -18 9 -50 20 -72 15 -29 20 -59 20 -117 0 -43 4 -78 9
-78 5 0 12 -29 16 -65 7 -67 20 -85 63 -85 11 0 19 -7 19 -17 -1 -67 4 -83 22
-83 11 0 21 -6 23 -12 3 -9 34 -14 102 -15 l98 -2 20 49 c11 27 28 50 38 53
13 3 20 18 25 51 l7 47 15 -28 c45 -86 81 -221 102 -393 11 -88 77 -356 111
-455 15 -44 31 -100 35 -125 4 -25 13 -56 20 -70 32 -63 112 -322 125 -408 6
-31 32 -108 59 -172 56 -132 95 -244 121 -346 10 -39 24 -84 32 -100 8 -16 21
-51 28 -79 7 -27 37 -123 66 -213 30 -90 54 -171 54 -180 0 -9 13 -57 29 -107
69 -215 98 -318 131 -467 l22 -98 1039 0 c801 0 1039 3 1039 12 0 9 3 9 12 0
9 -9 477 -12 2045 -12 l2033 0 0 16000 0 16000 -7200 0 -7200 0 0 -16000z
m8980 1560 c30 -10 179 -55 330 -100 151 -45 282 -85 290 -89 14 -7 112 -34
220 -60 25 -7 68 -18 95 -27 94 -28 110 -33 270 -80 88 -25 174 -53 192 -60
17 -8 37 -14 44 -14 7 0 31 -6 54 -14 22 -8 67 -22 100 -31 123 -35 291 -87
307 -96 9 -5 35 -12 57 -15 45 -7 70 -29 54 -45 -9 -9 -138 26 -243 66 -19 7
-62 21 -95 30 -66 19 -122 36 -175 53 -160 51 -302 92 -319 92 -11 0 -22 4
-26 9 -3 5 -20 12 -38 16 -47 10 -269 76 -289 86 -9 5 -35 12 -57 15 -23 4
-46 13 -52 20 -6 8 -24 14 -39 14 -28 0 -173 34 -213 50 -12 4 -56 18 -97 30
-41 13 -84 26 -95 30 -11 4 -99 31 -195 60 -176 53 -204 65 -194 81 6 10 32 5
114 -21z m-3315 -581 c0 -15 -7 -25 -18 -27 -22 -4 -33 24 -17 43 18 21 35 13
35 -16z m455 -349 c0 -11 -4 -20 -10 -20 -5 0 -10 9 -10 20 0 11 5 20 10 20 6
0 10 -9 10 -20z m658 8 c-3 -7 -11 -13 -18 -13 -7 0 -15 6 -17 13 -3 7 4 12
17 12 13 0 20 -5 18 -12z m-75 -233 c-22 -40 -27 -44 -45 -34 -20 11 -20 12
11 36 17 13 31 34 31 45 0 16 3 18 14 9 12 -10 10 -19 -11 -56z m658 16 c-7
-13 -21 -21 -36 -21 -31 0 -33 22 -4 51 19 19 23 19 36 6 12 -12 13 -19 4 -36z
m-507 -23 c8 -13 6 -22 -8 -37 -23 -25 -39 -26 -56 -6 -10 12 -10 21 -1 41 13
29 47 30 65 2z m445 -127 c10 -7 11 -18 4 -47 -9 -40 -28 -52 -61 -39 -15 6
-14 8 6 16 17 6 22 16 22 44 0 36 5 41 29 26z m649 -25 c2 -9 -2 -24 -9 -32
-17 -21 -33 -2 -25 31 7 28 29 29 34 1z m-522 -51 c-11 -36 -32 -46 -42 -21
-8 21 14 56 35 56 16 0 17 -4 7 -35z m-1176 -106 c0 -5 -11 -9 -25 -9 -26 0
-34 15 -12 23 16 5 37 -3 37 -14z m2283 -13 c21 -16 22 -55 2 -62 -21 -8 -45
14 -45 41 0 36 14 43 43 21z m-638 -33 c-9 -50 -16 -56 -43 -37 -29 20 -28 36
6 56 39 25 45 22 37 -19z m-1711 -18 c3 -9 18 -15 36 -15 34 0 37 -7 15 -36
-14 -18 -16 -18 -45 14 -30 32 -38 52 -21 52 5 0 11 -7 15 -15z m2288 -145
c-1 -12 3 -29 9 -36 17 -20 3 -44 -26 -44 -29 0 -33 15 -7 29 16 9 16 11 -2
24 -16 11 -17 17 -7 36 15 28 37 22 33 -9z m-1699 -12 c6 -3 19 -1 29 5 16 10
22 8 34 -8 17 -23 15 -67 -3 -73 -9 -2 -13 7 -13 26 0 43 -10 46 -41 10 l-28
-33 0 55 c0 30 3 48 6 40 3 -8 11 -18 16 -22z m2377 -25 c0 -28 -24 -40 -45
-23 -16 14 -11 49 9 62 16 10 36 -11 36 -39z m-1744 -159 c-3 -9 -6 -23 -6
-32 0 -24 -16 -46 -28 -38 -12 7 16 86 31 86 5 0 6 -7 3 -16z m1682 4 c17 -17
15 -65 -4 -72 -26 -10 -34 -7 -45 18 -20 43 18 85 49 54z m-1097 -241 c-26
-26 -28 -6 -3 28 13 18 18 20 20 8 2 -9 -5 -25 -17 -36z m66 21 c-3 -8 -6 -5
-6 6 -1 11 2 17 5 13 3 -3 4 -12 1 -19z m-1879 -57 c2 -18 1 -40 -3 -48 -5
-14 -7 -14 -19 2 -8 11 -20 16 -30 12 -22 -9 -20 8 6 44 27 36 42 33 46 -10z
m2487 -116 c0 -5 -10 -11 -22 -13 -16 -2 -23 2 -23 13 0 11 7 15 23 13 12 -2
22 -7 22 -13z m1703 -35 c2 -19 -4 -44 -11 -55 -13 -17 -18 -18 -42 -7 -25 11
-26 16 -20 50 9 50 13 54 43 50 23 -3 27 -8 30 -38z m-3606 -35 c-12 -22 -27
-2 -18 22 5 12 10 13 17 6 7 -7 8 -17 1 -28z m14 -71 c-23 -16 -46 -19 -46 -4
0 5 6 7 14 4 8 -3 16 4 19 18 5 18 9 20 19 10 11 -11 9 -16 -6 -28z m4223 -78
c30 -36 -12 -119 -48 -97 -13 8 -24 87 -14 104 7 12 50 8 62 -7z m-1729 -20
c0 -8 -4 -18 -10 -21 -5 -3 -10 3 -10 14 0 12 5 21 10 21 6 0 10 -6 10 -14z
m-1910 -5 c0 -12 -20 -25 -27 -18 -7 7 6 27 18 27 5 0 9 -4 9 -9z m4328 -23
c4 -33 -7 -35 -38 -10 -27 22 -19 45 13 40 16 -2 23 -11 25 -30z m-4353 -57
c3 -11 14 -22 23 -24 9 -3 2 -5 -15 -6 -29 -1 -33 2 -33 24 0 30 16 33 25 6z
m4319 -107 c9 -8 16 -24 16 -33 0 -23 -39 -73 -51 -66 -15 10 -10 22 11 28 30
8 28 64 -2 77 -17 6 -18 9 -6 9 9 1 24 -6 32 -15z m706 -8 c0 -25 -12 -46 -26
-46 -9 0 -14 11 -14 30 0 23 4 30 20 30 11 0 20 -6 20 -14z m-767 -26 c-7 -28
-13 -25 -13 6 0 14 4 23 9 20 5 -3 7 -15 4 -26z m-3599 -7 c-4 -16 -15 -37
-25 -48 -19 -19 -19 -19 -19 2 0 12 5 25 10 28 6 3 10 15 10 26 0 10 7 19 15
19 12 0 14 -7 9 -27z m-1706 -95 c5 -26 -34 -23 -41 3 -4 16 -1 20 16 17 12
-2 23 -11 25 -20z m-50 -76 c4 -24 -9 -28 -40 -11 -21 11 -21 12 -3 25 25 18
39 13 43 -14z m6785 -16 c7 -18 -1 -26 -25 -26 -18 0 -25 20 -11 33 11 12 31
8 36 -7z m-4375 -88 c-5 -16 -48 -24 -48 -10 0 11 17 20 38 21 8 1 12 -5 10
-11z m-1777 -40 c2 -21 -3 -63 -7 -67 -3 -3 -11 2 -20 10 -11 12 -13 22 -5 42
11 28 30 37 32 15z m4281 -108 c3 -16 1 -30 -4 -30 -4 0 -8 14 -8 30 0 17 2
30 4 30 2 0 6 -13 8 -30z m1836 -8 c3 -16 -2 -22 -17 -22 -24 0 -35 15 -27 36
9 23 40 13 44 -14z m-3758 -4 c0 -7 -7 -22 -15 -32 -14 -19 -15 -19 -15 5 0
14 3 29 7 32 10 11 23 8 23 -5z m1997 -23 c-4 -8 -14 -15 -23 -15 -16 0 -16 2
1 20 20 22 31 20 22 -5z m-1927 3 c0 -7 -4 -19 -9 -26 -7 -11 -10 -10 -15 3
-10 26 -7 35 9 35 8 0 15 -6 15 -12z m-1844 -145 c-11 -12 -27 13 -20 32 7 17
8 17 17 -3 6 -12 7 -25 3 -29z m4404 18 c0 -6 -5 -13 -11 -17 -6 -3 -8 -16 -5
-29 4 -16 1 -25 -11 -29 -9 -4 -18 -5 -20 -2 -9 9 21 86 34 86 7 0 13 -4 13
-9z m31 -64 c-17 -17 -24 -1 -10 25 12 21 14 21 17 4 2 -10 -1 -23 -7 -29z
m-5771 -27 c0 -11 -4 -20 -10 -20 -5 0 -10 9 -10 20 0 11 5 20 10 20 6 0 10
-9 10 -20z m3810 -34 c0 -20 -27 -39 -45 -32 -21 8 -19 19 8 32 31 16 37 16
37 0z m2658 -21 c2 -17 -4 -39 -11 -50 -13 -16 -17 -17 -31 -6 -19 16 -20 30
-6 66 14 36 44 30 48 -10z m1494 -30 c23 -16 35 -31 33 -42 -14 -68 -16 -73
-35 -73 -25 0 -25 9 -3 26 10 7 15 16 10 20 -4 4 -13 2 -19 -4 -18 -18 -48
-14 -74 11 -30 28 -30 41 2 66 34 27 42 26 86 -4z m-5955 -49 c-4 -9 -13 -16
-22 -16 -16 0 -19 17 -9 45 6 15 8 15 22 2 8 -9 12 -23 9 -31z m-2339 -15 c9
-6 34 -13 55 -16 21 -3 46 -14 55 -23 10 -10 44 -24 75 -32 65 -15 93 -32 83
-48 -11 -19 -98 -3 -121 22 -19 19 -77 28 -110 16 -12 -5 -85 39 -85 50 0 17
12 40 21 40 5 0 17 -4 27 -9z m1070 -31 c23 0 29 -14 11 -25 -6 -4 -7 -19 -4
-35 8 -36 -9 -46 -40 -26 -13 9 -31 13 -39 10 -23 -9 -31 23 -12 45 9 10 16
24 16 33 0 24 12 29 30 13 9 -8 26 -15 38 -15z m3708 -14 c8 -22 -14 -56 -36
-56 -22 0 -26 20 -10 51 12 22 38 25 46 5z m-1800 -82 c-4 -10 0 -21 9 -28 10
-7 13 -18 9 -29 -8 -23 -25 -22 -31 3 -3 11 -10 20 -15 20 -6 0 -7 -7 -4 -16
3 -9 6 -20 6 -25 0 -5 9 -9 21 -9 14 0 19 -5 17 -17 -5 -21 -45 -20 -67 2 -13
13 -13 19 2 50 9 20 17 42 17 50 0 9 9 15 21 15 15 0 19 -4 15 -16z m3794 -18
c0 -8 -9 -24 -20 -37 -20 -24 -20 -24 -35 -5 -20 26 -19 53 2 65 21 11 53 -3
53 -23z m-5841 -180 c14 -13 28 -16 46 -12 22 6 25 3 25 -18 0 -14 -7 -32 -16
-40 -14 -15 -18 -15 -42 2 -32 22 -110 52 -135 52 -10 0 -17 8 -17 18 0 17 8
19 59 18 42 -1 65 -7 80 -20z m2679 -47 c-5 -35 -28 -36 -28 -1 0 16 3 32 7
36 11 11 25 -10 21 -35z m1820 25 c22 -6 32 -34 11 -34 -17 0 -49 20 -49 30 0
11 6 12 38 4z m-1762 -101 c-8 -30 -30 -25 -34 7 -5 29 31 62 36 35 2 -9 1
-28 -2 -42z m2468 -21 c3 -5 -8 -19 -24 -31 -33 -23 -41 -10 -13 21 18 20 29
23 37 10z m40 -33 c-3 -5 -10 -7 -15 -3 -5 3 -7 10 -3 15 3 5 10 7 15 3 5 -3
7 -10 3 -15z m-84 -48 c0 -26 22 -41 48 -34 12 3 22 1 22 -3 0 -18 -41 -75
-49 -70 -9 6 -41 96 -41 115 0 6 5 11 10 11 6 0 10 -8 10 -19z m-1825 -53 c0
-20 3 -39 7 -43 13 -13 46 6 52 30 4 14 11 25 17 25 16 0 23 -31 11 -51 -7
-10 -12 -28 -12 -40 0 -20 -2 -21 -17 -8 -33 26 -62 39 -77 33 -22 -8 -26 8
-14 54 13 51 33 50 33 0z m2599 -10 c23 -33 20 -40 -16 -33 -47 10 -51 15 -32
36 22 24 29 24 48 -3z m1306 -23 c25 -27 25 -27 -7 -44 -17 -9 -25 -8 -37 5
-19 18 -19 20 -6 45 14 25 22 24 50 -6z m80 2 c0 -28 -25 -65 -37 -54 -4 5 -1
13 8 17 11 6 15 18 11 35 -2 15 0 25 7 25 6 0 11 -10 11 -23z m-734 -228 c-8
-62 -15 -80 -28 -73 -6 4 -7 28 -3 63 8 64 12 74 27 65 6 -4 8 -25 4 -55z
m-685 16 c-1 -15 -24 -12 -29 3 -3 9 2 13 12 10 10 -1 17 -7 17 -13z m-1881
-165 c0 -5 -4 -10 -10 -10 -5 0 -10 5 -10 10 0 6 5 10 10 10 6 0 10 -4 10 -10z
m2532 -101 c8 -57 2 -97 -12 -83 -11 11 -28 115 -22 132 9 28 27 2 34 -49z
m-1072 -180 c0 -12 -47 -12 -54 0 -3 4 -3 10 0 13 7 8 54 -3 54 -13z m-1653
-29 c21 0 22 -3 16 -52 -7 -59 -20 -74 -44 -52 -8 7 -25 14 -37 14 -30 0 -35
15 -21 58 6 20 13 43 15 50 3 10 9 10 26 -2 12 -9 32 -16 45 -16z m1601 -157
c2 -8 -5 -13 -17 -13 -12 0 -21 6 -21 16 0 18 31 15 38 -3z m-1616 -204 c15
-10 41 -19 57 -19 37 0 44 -11 31 -44 -12 -33 -27 -33 -100 4 -33 17 -73 30
-89 30 -35 0 -58 29 -38 49 16 16 106 3 139 -20z m818 -31 c0 -5 -7 -8 -15 -8
-16 0 -35 30 -35 57 0 14 5 12 25 -12 13 -16 24 -33 25 -37z m-116 -227 c4 -5
30 -12 59 -16 28 -4 70 -18 93 -31 22 -13 62 -27 88 -30 49 -7 76 -25 76 -49
0 -21 -11 -24 -69 -14 -33 5 -63 17 -78 31 -14 13 -37 24 -51 25 -15 2 -43 4
-62 6 -50 4 -100 37 -100 65 0 15 6 22 19 22 11 0 22 -4 25 -9z m2613 -100
c28 -42 29 -55 3 -81 -32 -32 -63 -26 -94 19 -23 33 -26 43 -16 61 12 23 45
40 70 37 8 -1 25 -17 37 -36z m-933 -136 c8 -22 -4 -45 -24 -45 -22 0 -34 28
-19 46 15 18 35 18 43 -1z m-770 -91 c9 -24 7 -31 -10 -38 -21 -8 -44 11 -44
35 0 24 45 26 54 3z m696 -96 c25 -7 49 -18 53 -25 4 -7 22 -13 39 -13 30 0
104 -37 94 -48 -7 -7 -114 27 -122 39 -3 5 -14 9 -25 9 -22 0 -118 38 -134 53
-12 11 27 5 95 -15z m-790 -88 c0 -5 -4 -10 -9 -10 -6 0 -13 5 -16 10 -3 6 1
10 9 10 9 0 16 -4 16 -10z m60 -20 c21 -13 7 -22 -25 -14 -20 5 -23 9 -13 15
16 11 20 11 38 -1z m749 -57 c11 -21 -3 -53 -23 -53 -15 0 -27 35 -19 56 7 19
30 18 42 -3z m732 -252 c20 -16 22 -21 10 -35 -17 -20 -50 -17 -64 6 -8 12 -7
21 2 32 17 20 24 20 52 -3z m-18 -213 c18 -9 23 -28 7 -28 -28 0 -90 26 -90
38 0 14 47 9 83 -10z m334 -1825 c-3 -10 -5 -2 -5 17 0 19 2 27 5 18 2 -10 2
-26 0 -35z m-9977 -168 c-7 -13 -17 -22 -22 -19 -11 7 -10 -3 2 -27 8 -13 21
-19 45 -19 27 0 35 -4 35 -18 0 -28 -28 -60 -59 -67 -16 -3 -32 -13 -35 -21
-8 -20 -23 -17 -29 6 -6 25 -52 27 -85 4 -36 -25 -39 -7 -8 49 42 75 46 79 77
73 24 -4 28 -1 34 23 3 16 16 33 28 38 29 14 33 8 17 -22z m70 -29 c0 -23 -16
-27 -17 -5 -1 10 2 19 8 19 5 0 9 -6 9 -14z m9831 -440 c-20 -64 -49 -121 -58
-112 -6 6 18 75 34 101 7 11 13 27 13 37 0 9 6 29 12 44 22 48 21 1 -1 -70z
m-10851 -1006 c0 -23 -4 -30 -20 -30 -24 0 -25 8 -4 38 20 29 24 28 24 -8z m0
-50 c0 -5 -2 -10 -4 -10 -3 0 -8 5 -11 10 -3 6 -1 10 4 10 6 0 11 -4 11 -10z
m30 -76 c0 -35 -8 -67 -35 -143 -4 -11 -8 -11 -21 -1 -10 9 -12 16 -4 24 19
19 12 86 -12 105 -27 22 -18 51 16 51 13 0 27 7 30 17 11 27 26 -4 26 -53z
m1761 -336 c1 -7 0 -39 -1 -70 -1 -47 1 -58 14 -58 9 0 16 -4 16 -10 0 -5 -7
-10 -15 -10 -23 0 -20 -91 4 -119 20 -23 18 -56 -6 -79 -9 -10 -13 -50 -13
-147 0 -124 -2 -135 -20 -145 -11 -6 -20 -17 -20 -25 0 -8 -4 -15 -10 -15 -5
0 -10 -7 -10 -15 0 -9 -7 -18 -15 -21 -8 -4 -15 -10 -15 -16 0 -5 -6 -16 -12
-23 -7 -8 -19 -21 -26 -30 -7 -9 -29 -15 -52 -15 -36 0 -40 -3 -62 -50 -17
-36 -29 -49 -44 -50 -12 0 -27 -6 -33 -13 -6 -8 -23 -12 -40 -9 -26 4 -32 -1
-50 -34 -27 -50 -46 -74 -59 -74 -6 0 -14 -34 -18 -79 -6 -69 -9 -80 -30 -92
-15 -7 -26 -25 -30 -45 -3 -18 -16 -43 -27 -55 l-22 -24 -5 75 -5 75 -35 6
c-19 3 -45 9 -57 13 -12 4 -24 2 -28 -4 -12 -20 -21 -10 -17 20 4 28 2 30 -27
30 -29 0 -31 -2 -31 -35 0 -31 3 -35 26 -35 26 0 26 -2 20 -42 -4 -23 -10 -45
-15 -48 -4 -3 -10 -13 -14 -22 -4 -13 -17 -18 -42 -18 -30 0 -37 4 -49 35 -8
19 -20 36 -25 36 -26 3 -30 4 -37 12 -4 4 0 7 9 7 9 0 17 5 17 10 0 6 11 10
25 10 23 0 25 4 25 45 0 25 5 45 10 45 6 0 10 7 10 15 0 8 4 15 9 15 5 0 12
16 15 35 l7 34 62 3 c43 2 61 7 60 16 -2 6 4 12 12 12 8 0 15 5 15 10 0 6 6
10 14 10 8 0 18 9 21 20 3 11 17 23 31 26 23 6 24 9 24 95 0 53 4 89 10 89 6
0 10 11 10 24 0 14 10 37 23 53 13 15 31 45 41 66 l17 37 54 -6 c52 -6 55 -6
55 15 0 12 4 19 10 16 6 -4 10 13 10 43 0 27 3 64 6 81 7 33 28 42 38 16 3 -8
17 -15 30 -15 25 0 25 1 19 63 -4 50 -2 66 11 79 9 9 16 21 16 26 0 24 34 111
41 106 5 -3 9 0 9 5 0 6 16 11 35 11 33 0 35 2 35 35 0 24 5 35 15 35 8 0 15
7 15 15 0 9 9 15 25 15 14 0 25 5 25 10 0 15 20 12 21 -2z m-987 -1294 c16
-43 -22 -179 -42 -148 -4 6 -17 14 -29 18 -31 10 -29 34 2 42 20 5 25 13 25
36 0 52 30 88 44 52z m-57 -276 c-3 -7 -5 -2 -5 12 0 14 2 19 5 13 2 -7 2 -19
0 -25z m2206 -185 c-5 -14 -8 -13 -20 3 -7 10 -13 24 -13 32 0 12 4 12 19 -2
11 -10 17 -25 14 -33z m6317 -188 c0 -19 8 -50 17 -70 15 -31 15 -40 4 -68 -7
-18 -22 -61 -32 -97 -35 -121 -82 -221 -96 -206 -2 2 5 37 16 77 10 41 27 133
36 204 19 150 32 208 45 200 6 -4 10 -22 10 -40z m-6487 -119 c18 -14 24 -56
7 -56 -5 0 -10 -7 -10 -15 0 -8 -7 -15 -15 -15 -16 0 -31 60 -21 85 7 18 16
19 39 1z m-1013 -975 c0 -5 -18 -11 -40 -13 -22 -2 -40 0 -40 4 0 4 17 9 38
11 20 2 38 4 40 5 1 1 2 -2 2 -7z m-68 -217 c-6 -35 -12 -29 -12 14 0 23 3 32
9 24 4 -7 6 -24 3 -38z m22 -85 c3 -17 6 -46 6 -65 0 -18 5 -36 10 -39 6 -3
10 -17 10 -31 0 -13 -4 -24 -10 -24 -5 0 -10 -9 -10 -19 0 -10 -6 -21 -14 -24
-19 -8 -30 37 -15 65 7 13 10 50 7 95 -5 74 4 99 16 42z m30 -305 c9 -23 0
-32 -29 -26 -29 5 -30 7 -12 27 16 19 33 19 41 -1z m-14 -769 c4 3 11 -17 15
-45 4 -27 11 -52 16 -56 26 -15 -13 -110 -48 -119 l-25 -6 4 -137 c3 -129 2
-139 -19 -165 -12 -16 -24 -23 -28 -17 -3 5 -13 22 -21 38 -7 15 -14 21 -14
15 0 -7 -9 -13 -19 -13 -11 0 -22 -8 -24 -17 -3 -10 -5 12 -6 50 -1 42 -5 67
-12 67 -7 0 -9 9 -5 23 4 12 9 38 12 57 19 133 46 215 75 223 10 3 23 31 35
77 10 40 26 80 34 89 13 13 15 10 18 -27 2 -24 7 -40 12 -37z m-183 -512 c-3
-10 -5 -2 -5 17 0 19 2 27 5 18 2 -10 2 -26 0 -35z m2180 -719 c-3 -3 -12 -4
-19 -1 -8 3 -5 6 6 6 11 1 17 -2 13 -5z m3523 -1272 c0 -8 9 -21 19 -30 11
-10 23 -28 27 -42 6 -22 5 -23 -9 -12 -20 17 -57 88 -57 110 0 15 2 15 10 2 5
-8 10 -21 10 -28z"/>
<path d="M13784 11935 c-8 -31 7 -50 31 -41 22 8 16 60 -7 64 -12 2 -19 -5
-24 -23z"/>
<path d="M6790 2873 c0 -60 16 -118 38 -142 8 -8 12 -27 10 -42 -4 -23 0 -28
23 -31 18 -3 30 1 34 10 9 23 6 120 -4 126 -5 3 -7 24 -4 45 3 22 3 51 -1 65
-6 23 -11 26 -51 26 l-45 0 0 -57z"/>
</g>
</svg>
